{
    "asset": {
        "version": "2.0",
        "generator": "Open Asset Import Library (assimp v5.2.cf7d3637)"
    },
    "extensionsUsed": [
        "KHR_materials_volume",
        "FB_ngon_encoding"
    ],
    "accessors": [
        {
            "bufferView": 0,
            "byteOffset": 0,
            "componentType": 5126,
            "count": 5178,
            "type": "VEC3",
            "max": [
                2.8080761432647707,
                3.0,
                3.0
            ],
            "min": [
                -2.8080761432647707,
                -2.0010945796966554,
                -6.199999809265137
            ]
        },
        {
            "bufferView": 1,
            "byteOffset": 0,
            "componentType": 5126,
            "count": 5178,
            "type": "VEC3",
            "max": [
                1.0,
                0.9710137844085693,
                0.972069501876831
            ],
            "min": [
                -1.0,
                -0.9927679300308228,
                -0.9771867990493774
            ]
        },
        {
            "bufferView": 2,
            "byteOffset": 0,
            "componentType": 5126,
            "count": 5178,
            "type": "VEC2",
            "max": [
                0.9737951159477234,
                0.9996760487556458
            ],
            "min": [
                0.00032395325251854956,
                0.00032401084899902344
            ]
        },
        {
            "bufferView": 3,
            "byteOffset": 0,
            "componentType": 5125,
            "count": 5178,
            "type": "SCALAR",
            "max": [
                5177
            ],
            "min": [
                0
            ]
        }
    ],
    "buffers": [
        {
            "byteLength": 186408,
            "uri": "result.bin"
        }
    ],
    "bufferViews": [
        {
            "buffer": 0,
            "byteOffset": 0,
            "byteLength": 62136,
            "target": 34962
        },
        {
            "buffer": 0,
            "byteOffset": 62136,
            "byteLength": 62136,
            "target": 34962
        },
        {
            "buffer": 0,
            "byteOffset": 124272,
            "byteLength": 41424,
            "target": 34962
        },
        {
            "buffer": 0,
            "byteOffset": 165696,
            "byteLength": 20712,
            "target": 34963
        }
    ],
    "images": [
        {
            "uri": "data:image/png;base64,"
        },
        {
            "uri": "data:image/png;base64,"
        }
    ],
    "materials": [
        {
            "name": "Material",
            "pbrMetallicRoughness": {
                "baseColorTexture": {
                    "index": 0
                },
                "baseColorFactor": [
                    0.800000011920929,
                    0.800000011920929,
                    0.800000011920929,
                    1.0
                ],
                "metallicFactor": 0.0,
                "roughnessFactor": 0.7763932347297669
            },
            "emissiveTexture": {
                "index": 1
            }
        }
    ],
    "meshes": [
        {
            "name": "mesh",
            "primitives": [
                {
                    "extensions": {
                        "FB_ngon_encoding": {}
                    },
                    "mode": 4,
                    "material": 0,
                    "indices": 3,
                    "attributes": {
                        "POSITION": 0,
                        "NORMAL": 1,
                        "TEXCOORD_0": 2
                    }
                }
            ]
        }
    ],
    "nodes": [
        {
            "name": "<BlenderRoot>",
            "children": [
                1,
                2,
                3
            ]
        },
        {
            "name": "Point",
            "matrix": [
                1.0,
                0.0,
                0.0,
                0.0,
                0.0,
                1.0,
                0.0,
                0.0,
                0.0,
                0.0,
                1.0,
                0.0,
                -9.57417106628418,
                -5.462581634521484,
                -6.88705587387085,
                1.0
            ]
        },
        {
            "name": "Mesh",
            "matrix": [
                1.0,
                0.0,
                0.0,
                0.0,
                0.0,
                -1.6292068494294654e-7,
                1.0,
                0.0,
                0.0,
                -1.0,
                -1.6292068494294654e-7,
                0.0,
                0.0,
                0.0,
                0.0,
                1.0
            ],
            "mesh": 0
        },
        {
            "name": "Lamp",
            "matrix": [
                -0.5418271422386169,
                0.8378826379776001,
                -0.06615188717842102,
                0.0,
                -0.7324854135513306,
                -0.43213900923728945,
                0.5260428190231323,
                0.0,
                0.4121752977371216,
                0.33347955346107485,
                0.8478814363479614,
                0.0,
                4.076245307922363,
                1.0054539442062379,
                5.903861999511719,
                1.0
            ]
        }
    ],
    "samplers": [
        {},
        {}
    ],
    "scenes": [
        {
            "nodes": [
                0
            ]
        }
    ],
    "textures": [
        {
            "source": 0,
            "sampler": 0
        },
        {
            "source": 1,
            "sampler": 1
        }
    ],
    "scene": 0
}