{
    "asset": {
        "version": "2.0",
        "generator": "Open Asset Import Library (assimp v5.2.cf7d3637)"
    },
    "extensionsUsed": [
        "KHR_materials_volume",
        "FB_ngon_encoding"
    ],
    "accessors": [
        {
            "bufferView": 0,
            "byteOffset": 0,
            "componentType": 5126,
            "count": 7026,
            "type": "VEC3",
            "max": [
                3.998183250427246,
                2.859565496444702,
                6.251197338104248
            ],
            "min": [
                -3.998183250427246,
                -2.450000047683716,
                -4.420985698699951
            ]
        },
        {
            "bufferView": 1,
            "byteOffset": 0,
            "componentType": 5126,
            "count": 7026,
            "type": "VEC3",
            "max": [
                0.9977062940597534,
                0.9993020296096802,
                0.9999710321426392
            ],
            "min": [
                -0.9977062940597534,
                -0.9994261264801025,
                -0.9719147086143494
            ]
        },
        {
            "bufferView": 2,
            "byteOffset": 0,
            "componentType": 5126,
            "count": 7026,
            "type": "VEC2",
            "max": [
                0.970878541469574,
                0.9996422529220581
            ],
            "min": [
                0.0003577603492885828,
                0.00035774707794189453
            ]
        },
        {
            "bufferView": 3,
            "byteOffset": 0,
            "componentType": 5125,
            "count": 7026,
            "type": "SCALAR",
            "max": [
                7025
            ],
            "min": [
                0
            ]
        }
    ],
    "buffers": [
        {
            "byteLength": 252936,
            "uri": "result.bin"
        }
    ],
    "bufferViews": [
        {
            "buffer": 0,
            "byteOffset": 0,
            "byteLength": 84312,
            "target": 34962
        },
        {
            "buffer": 0,
            "byteOffset": 84312,
            "byteLength": 84312,
            "target": 34962
        },
        {
            "buffer": 0,
            "byteOffset": 168624,
            "byteLength": 56208,
            "target": 34962
        },
        {
            "buffer": 0,
            "byteOffset": 224832,
            "byteLength": 28104,
            "target": 34963
        }
    ],
    "images": [
        {
            "uri": "data:image/png;base64,"
        },
        {
            "uri": "data:image/png;base64,"
        }
    ],
    "materials": [
        {
            "name": "Material",
            "pbrMetallicRoughness": {
                "baseColorTexture": {
                    "index": 0
                },
                "baseColorFactor": [
                    0.800000011920929,
                    0.800000011920929,
                    0.800000011920929,
                    1.0
                ],
                "metallicFactor": 0.0,
                "roughnessFactor": 0.7763932347297669
            },
            "emissiveTexture": {
                "index": 1
            }
        }
    ],
    "meshes": [
        {
            "name": "mesh",
            "primitives": [
                {
                    "extensions": {
                        "FB_ngon_encoding": {}
                    },
                    "mode": 4,
                    "material": 0,
                    "indices": 3,
                    "attributes": {
                        "POSITION": 0,
                        "NORMAL": 1,
                        "TEXCOORD_0": 2
                    }
                }
            ]
        }
    ],
    "nodes": [
        {
            "name": "<BlenderRoot>",
            "children": [
                1,
                2,
                3
            ]
        },
        {
            "name": "Lamp.001",
            "matrix": [
                -0.29086464643478396,
                0.9551711678504944,
                -0.05518905818462372,
                0.0,
                -0.7711008191108704,
                -0.1998833566904068,
                0.6045247316360474,
                0.0,
                0.5663931965827942,
                0.21839119493961335,
                0.7946722507476807,
                0.0,
                4.184246063232422,
                -3.6581456661224367,
                -2.0321853160858156,
                1.0
            ]
        },
        {
            "name": "mesh",
            "matrix": [
                -0.5,
                -4.371138828673793e-8,
                0.0,
                0.0,
                -7.121489643379785e-15,
                8.146034247147327e-8,
                0.5,
                0.0,
                -4.371138828673793e-8,
                0.5,
                -8.146034247147327e-8,
                0.0,
                0.0,
                0.0,
                0.0,
                1.0
            ],
            "mesh": 0
        },
        {
            "name": "Lamp",
            "matrix": [
                -0.29086464643478396,
                0.9551711678504944,
                -0.05518905818462372,
                0.0,
                -0.7711008191108704,
                -0.1998833566904068,
                0.6045247316360474,
                0.0,
                0.5663931965827942,
                0.21839119493961335,
                0.7946722507476807,
                0.0,
                -4.256222248077393,
                0.5975325107574463,
                4.2497687339782719,
                1.0
            ]
        }
    ],
    "samplers": [
        {},
        {}
    ],
    "scenes": [
        {
            "nodes": [
                0
            ]
        }
    ],
    "textures": [
        {
            "source": 0,
            "sampler": 0
        },
        {
            "source": 1,
            "sampler": 1
        }
    ],
    "scene": 0
}