{
    "asset": {
        "version": "2.0",
        "generator": "Open Asset Import Library (assimp v5.2.cf7d3637)"
    },
    "extensionsUsed": [
        "KHR_materials_volume",
        "FB_ngon_encoding"
    ],
    "accessors": [
        {
            "bufferView": 0,
            "byteOffset": 0,
            "componentType": 5126,
            "count": 9240,
            "type": "VEC3",
            "max": [
                2.0999999046325685,
                0.9641818404197693,
                2.354370355606079
            ],
            "min": [
                -2.0999999046325685,
                -0.9916957020759583,
                -2.65030574798584
            ]
        },
        {
            "bufferView": 1,
            "byteOffset": 0,
            "componentType": 5126,
            "count": 9240,
            "type": "VEC3",
            "max": [
                0.9978460669517517,
                1.0,
                0.952081024646759
            ],
            "min": [
                -0.9978460669517517,
                -1.0,
                -1.0
            ]
        },
        {
            "bufferView": 2,
            "byteOffset": 0,
            "componentType": 5126,
            "count": 9240,
            "type": "VEC2",
            "max": [
                0.9961311221122742,
                0.9994912147521973
            ],
            "min": [
                0.0005087790195830166,
                0.0005087852478027344
            ]
        },
        {
            "bufferView": 3,
            "byteOffset": 0,
            "componentType": 5125,
            "count": 9240,
            "type": "SCALAR",
            "max": [
                9239
            ],
            "min": [
                0
            ]
        }
    ],
    "buffers": [
        {
            "byteLength": 332640,
            "uri": "result.bin"
        }
    ],
    "bufferViews": [
        {
            "buffer": 0,
            "byteOffset": 0,
            "byteLength": 110880,
            "target": 34962
        },
        {
            "buffer": 0,
            "byteOffset": 110880,
            "byteLength": 110880,
            "target": 34962
        },
        {
            "buffer": 0,
            "byteOffset": 221760,
            "byteLength": 73920,
            "target": 34962
        },
        {
            "buffer": 0,
            "byteOffset": 295680,
            "byteLength": 36960,
            "target": 34963
        }
    ],
    "images": [
        {
            "uri": "data:image/png;base64,"
        },
        {
            "uri": "data:image/png;base64,"
        }
    ],
    "materials": [
        {
            "name": "Material",
            "pbrMetallicRoughness": {
                "baseColorTexture": {
                    "index": 0
                },
                "baseColorFactor": [
                    0.800000011920929,
                    0.800000011920929,
                    0.800000011920929,
                    1.0
                ],
                "metallicFactor": 0.0,
                "roughnessFactor": 0.7763932347297669
            },
            "emissiveTexture": {
                "index": 1
            }
        }
    ],
    "meshes": [
        {
            "name": "mesh",
            "primitives": [
                {
                    "extensions": {
                        "FB_ngon_encoding": {}
                    },
                    "mode": 4,
                    "material": 0,
                    "indices": 3,
                    "attributes": {
                        "POSITION": 0,
                        "NORMAL": 1,
                        "TEXCOORD_0": 2
                    }
                }
            ]
        }
    ],
    "nodes": [
        {
            "name": "<BlenderRoot>",
            "children": [
                1,
                2,
                3,
                4
            ]
        },
        {
            "name": "Lamp.001",
            "matrix": [
                -0.29086464643478396,
                0.9551711678504944,
                -0.05518905818462372,
                0.0,
                -0.7711008191108704,
                -0.1998833566904068,
                0.6045247316360474,
                0.0,
                0.5663931965827942,
                0.21839119493961335,
                0.7946722507476807,
                0.0,
                -3.7118124961853029,
                1.1554352045059205,
                -4.469225883483887,
                1.0
            ]
        },
        {
            "name": "mesh",
            "matrix": [
                1.0,
                0.0,
                0.0,
                0.0,
                0.0,
                -1.6292068494294654e-7,
                1.0,
                0.0,
                0.0,
                -1.0,
                -1.6292068494294654e-7,
                0.0,
                0.0,
                0.0,
                0.0,
                1.0
            ],
            "mesh": 0
        },
        {
            "name": "Lamp",
            "matrix": [
                -0.29086464643478396,
                0.9551711678504944,
                -0.05518905818462372,
                0.0,
                -0.7711008191108704,
                -0.1998833566904068,
                0.6045247316360474,
                0.0,
                0.5663931965827942,
                0.21839119493961335,
                0.7946722507476807,
                0.0,
                4.076245307922363,
                1.0054539442062379,
                5.903861999511719,
                1.0
            ]
        },
        {
            "name": "Camera",
            "matrix": [
                0.6858805418014526,
                0.7276337742805481,
                -0.010816780850291253,
                0.0,
                -0.31737011671066286,
                0.31246861815452578,
                0.8953432440757752,
                0.0,
                0.6548618674278259,
                -0.6106656193733215,
                0.4452453553676605,
                0.0,
                7.481131553649902,
                -6.5076398849487309,
                5.34366512298584,
                1.0
            ]
        }
    ],
    "samplers": [
        {},
        {}
    ],
    "scenes": [
        {
            "nodes": [
                0
            ]
        }
    ],
    "textures": [
        {
            "source": 0,
            "sampler": 0
        },
        {
            "source": 1,
            "sampler": 1
        }
    ],
    "scene": 0
}