{
    "asset": {
        "version": "2.0",
        "generator": "Open Asset Import Library (assimp v5.2.cf7d3637)"
    },
    "extensionsUsed": [
        "KHR_materials_volume",
        "FB_ngon_encoding"
    ],
    "accessors": [
        {
            "bufferView": 0,
            "byteOffset": 0,
            "componentType": 5126,
            "count": 13932,
            "type": "VEC3",
            "max": [
                4.475063323974609,
                2.1500000953674318,
                6.5585784912109379
            ],
            "min": [
                -4.475063323974609,
                -2.574519157409668,
                -5.300000190734863
            ]
        },
        {
            "bufferView": 1,
            "byteOffset": 0,
            "componentType": 5126,
            "count": 13932,
            "type": "VEC3",
            "max": [
                1.0,
                0.993721604347229,
                0.9958341717720032
            ],
            "min": [
                -1.0,
                -0.9921380281448364,
                -1.0
            ]
        },
        {
            "bufferView": 2,
            "byteOffset": 0,
            "componentType": 5126,
            "count": 13932,
            "type": "VEC2",
            "max": [
                0.9594383835792542,
                0.9995719790458679
            ],
            "min": [
                0.00042802252573892474,
                0.0004280209541320801
            ]
        },
        {
            "bufferView": 3,
            "byteOffset": 0,
            "componentType": 5125,
            "count": 13932,
            "type": "SCALAR",
            "max": [
                13931
            ],
            "min": [
                0
            ]
        }
    ],
    "buffers": [
        {
            "byteLength": 501552,
            "uri": "result.bin"
        }
    ],
    "bufferViews": [
        {
            "buffer": 0,
            "byteOffset": 0,
            "byteLength": 167184,
            "target": 34962
        },
        {
            "buffer": 0,
            "byteOffset": 167184,
            "byteLength": 167184,
            "target": 34962
        },
        {
            "buffer": 0,
            "byteOffset": 334368,
            "byteLength": 111456,
            "target": 34962
        },
        {
            "buffer": 0,
            "byteOffset": 445824,
            "byteLength": 55728,
            "target": 34963
        }
    ],
    "images": [
        {
            "uri": "data:image/png;base64,"
        },
        {
            "uri": "data:image/png;base64,"
        }
    ],
    "materials": [
        {
            "name": "Material",
            "pbrMetallicRoughness": {
                "baseColorTexture": {
                    "index": 0
                },
                "baseColorFactor": [
                    0.800000011920929,
                    0.800000011920929,
                    0.800000011920929,
                    1.0
                ],
                "metallicFactor": 0.0,
                "roughnessFactor": 0.7763932347297669
            },
            "emissiveTexture": {
                "index": 1
            }
        }
    ],
    "meshes": [
        {
            "name": "Mesh",
            "primitives": [
                {
                    "extensions": {
                        "FB_ngon_encoding": {}
                    },
                    "mode": 4,
                    "material": 0,
                    "indices": 3,
                    "attributes": {
                        "POSITION": 0,
                        "NORMAL": 1,
                        "TEXCOORD_0": 2
                    }
                }
            ]
        }
    ],
    "nodes": [
        {
            "name": "<BlenderRoot>",
            "children": [
                1,
                2
            ]
        },
        {
            "name": "Mesh",
            "matrix": [
                1.0,
                0.0,
                0.0,
                0.0,
                0.0,
                -1.6292068494294654e-7,
                1.0,
                0.0,
                0.0,
                -1.0,
                -1.6292068494294654e-7,
                0.0,
                0.0,
                0.0,
                0.0,
                1.0
            ],
            "mesh": 0
        },
        {
            "name": "Lamp",
            "matrix": [
                -0.32279253005981448,
                0.8508596420288086,
                0.4145393371582031,
                0.0,
                -0.8061473965644836,
                -0.01767481118440628,
                -0.5914506912231445,
                0.0,
                -0.49591463804244997,
                -0.5250957012176514,
                0.6916236281394959,
                0.0,
                4.076245307922363,
                1.0054539442062379,
                5.903861999511719,
                1.0
            ]
        }
    ],
    "samplers": [
        {},
        {}
    ],
    "scenes": [
        {
            "nodes": [
                0
            ]
        }
    ],
    "textures": [
        {
            "source": 0,
            "sampler": 0
        },
        {
            "source": 1,
            "sampler": 1
        }
    ],
    "scene": 0
}